<mxfile host="app.diagrams.net" modified="2022-04-18T18:18:37.572Z" agent="5.0 (Windows NT 10.0; Win64; x64) AppleWebKit/537.36 (KHTML, like Gecko) Chrome/100.0.4896.127 Safari/537.36" etag="0QguvslbKqeWEEou51_u" version="17.4.5" type="github">
  <diagram id="prtHgNgQTEPvFCAcTncT" name="Page-1">
    <mxGraphModel dx="1038" dy="481" grid="1" gridSize="10" guides="1" tooltips="1" connect="1" arrows="1" fold="1" page="1" pageScale="1" pageWidth="827" pageHeight="1169" math="0" shadow="0">
      <root>
        <mxCell id="0" />
        <mxCell id="1" parent="0" />
        <mxCell id="dNxyNK7c78bLwvsdeMH5-11" value="" style="swimlane;html=1;startSize=20;horizontal=1;containerType=tree;glass=0;" parent="1" vertex="1">
          <mxGeometry x="60" y="80" width="680" height="390" as="geometry" />
        </mxCell>
        <mxCell id="YEjkeWz_LEwP8i8aEj7y-1" value="Header" style="rounded=0;whiteSpace=wrap;html=1;" vertex="1" parent="dNxyNK7c78bLwvsdeMH5-11">
          <mxGeometry x="20" y="30" width="650" height="70" as="geometry" />
        </mxCell>
        <mxCell id="YEjkeWz_LEwP8i8aEj7y-2" value="MenuBar" style="rounded=0;whiteSpace=wrap;html=1;" vertex="1" parent="dNxyNK7c78bLwvsdeMH5-11">
          <mxGeometry x="70" y="70" width="120" height="20" as="geometry" />
        </mxCell>
        <mxCell id="YEjkeWz_LEwP8i8aEj7y-3" value="Search" style="rounded=0;whiteSpace=wrap;html=1;" vertex="1" parent="dNxyNK7c78bLwvsdeMH5-11">
          <mxGeometry x="420" y="70" width="120" height="20" as="geometry" />
        </mxCell>
        <mxCell id="YEjkeWz_LEwP8i8aEj7y-4" value="Tweet" style="rounded=0;whiteSpace=wrap;html=1;" vertex="1" parent="dNxyNK7c78bLwvsdeMH5-11">
          <mxGeometry x="550" y="70" width="120" height="20" as="geometry" />
        </mxCell>
        <mxCell id="YEjkeWz_LEwP8i8aEj7y-6" value="Body" style="rounded=0;whiteSpace=wrap;html=1;" vertex="1" parent="1">
          <mxGeometry x="80" y="190" width="650" height="270" as="geometry" />
        </mxCell>
        <mxCell id="YEjkeWz_LEwP8i8aEj7y-7" value="Profile" style="rounded=0;whiteSpace=wrap;html=1;" vertex="1" parent="1">
          <mxGeometry x="90" y="200" width="120" height="30" as="geometry" />
        </mxCell>
        <mxCell id="YEjkeWz_LEwP8i8aEj7y-8" value="Bio" style="rounded=0;whiteSpace=wrap;html=1;" vertex="1" parent="1">
          <mxGeometry x="90" y="240" width="120" height="60" as="geometry" />
        </mxCell>
        <mxCell id="YEjkeWz_LEwP8i8aEj7y-9" value="NewsFeed" style="rounded=0;whiteSpace=wrap;html=1;" vertex="1" parent="1">
          <mxGeometry x="220" y="200" width="120" height="150" as="geometry" />
        </mxCell>
        <mxCell id="YEjkeWz_LEwP8i8aEj7y-10" value="Add Friend" style="rounded=0;whiteSpace=wrap;html=1;" vertex="1" parent="1">
          <mxGeometry x="600" y="200" width="120" height="150" as="geometry" />
        </mxCell>
        <mxCell id="YEjkeWz_LEwP8i8aEj7y-11" value="SearchBar" style="rounded=0;whiteSpace=wrap;html=1;" vertex="1" parent="1">
          <mxGeometry x="235" y="210" width="90" height="20" as="geometry" />
        </mxCell>
        <mxCell id="YEjkeWz_LEwP8i8aEj7y-13" value="Item" style="rounded=0;whiteSpace=wrap;html=1;" vertex="1" parent="1">
          <mxGeometry x="230" y="245" width="100" height="15" as="geometry" />
        </mxCell>
        <mxCell id="YEjkeWz_LEwP8i8aEj7y-15" value="Item" style="rounded=0;whiteSpace=wrap;html=1;" vertex="1" parent="1">
          <mxGeometry x="230" y="285" width="100" height="15" as="geometry" />
        </mxCell>
        <mxCell id="YEjkeWz_LEwP8i8aEj7y-16" value="Item" style="rounded=0;whiteSpace=wrap;html=1;" vertex="1" parent="1">
          <mxGeometry x="230" y="310" width="100" height="15" as="geometry" />
        </mxCell>
        <mxCell id="YEjkeWz_LEwP8i8aEj7y-17" value="Title" style="rounded=0;whiteSpace=wrap;html=1;" vertex="1" parent="1">
          <mxGeometry x="610" y="205" width="100" height="20" as="geometry" />
        </mxCell>
        <mxCell id="YEjkeWz_LEwP8i8aEj7y-18" value="Friend" style="rounded=0;whiteSpace=wrap;html=1;" vertex="1" parent="1">
          <mxGeometry x="610" y="240" width="100" height="20" as="geometry" />
        </mxCell>
        <mxCell id="YEjkeWz_LEwP8i8aEj7y-19" value="Friend" style="rounded=0;whiteSpace=wrap;html=1;" vertex="1" parent="1">
          <mxGeometry x="610" y="285" width="100" height="20" as="geometry" />
        </mxCell>
        <mxCell id="YEjkeWz_LEwP8i8aEj7y-20" value="Friend" style="rounded=0;whiteSpace=wrap;html=1;" vertex="1" parent="1">
          <mxGeometry x="610" y="320" width="100" height="20" as="geometry" />
        </mxCell>
      </root>
    </mxGraphModel>
  </diagram>
</mxfile>
